<?xml version="1.0" encoding="utf-8"?>
<!-- Generator: Adobe Illustrator 16.0.0, SVG Export Plug-In . SVG Version: 6.00 Build 0)  -->
<!DOCTYPE svg PUBLIC "-//W3C//DTD SVG 1.1//EN" "http://www.w3.org/Graphics/SVG/1.1/DTD/svg11.dtd">
<svg version="1.1" id="Layer_1" xmlns="http://www.w3.org/2000/svg" xmlns:xlink="http://www.w3.org/1999/xlink" x="0px" y="0px"
	 width="100px" height="100px" viewBox="0 0 100 100" enable-background="new 0 0 100 100" xml:space="preserve">
<path fill="#010101" d="M50,0.005c-0.432,0-0.858-0.011-1.287,0C21.695,0.689,0,22.821,0,50.002C0,77.615,22.386,100,50,100
	s50-22.385,50-49.997C100,22.39,77.614,0.005,50,0.005z M50,90c-22.091,0-40-17.906-40-39.997c0-22.09,17.909-39.998,40-39.998
	c22.092,0,40,17.908,40,39.998C90,72.093,72.092,90,50,90z"/>
<polygon fill="#010101" points="35.857,79.41 76.824,50 35.647,20.59 "/>
</svg>
